<mxfile host="Electron" modified="2024-05-03T10:57:22.194Z" agent="Mozilla/5.0 (Windows NT 10.0; Win64; x64) AppleWebKit/537.36 (KHTML, like Gecko) draw.io/24.2.5 Chrome/120.0.6099.109 Electron/28.1.0 Safari/537.36" etag="BG26KnqdidYMY7YCrGe-" version="24.2.5" type="device">
  <diagram id="C5RBs43oDa-KdzZeNtuy" name="Page-1">
    <mxGraphModel dx="1054" dy="638" grid="1" gridSize="10" guides="1" tooltips="1" connect="1" arrows="1" fold="1" page="1" pageScale="1" pageWidth="827" pageHeight="1169" math="0" shadow="0">
      <root>
        <mxCell id="WIyWlLk6GJQsqaUBKTNV-0" />
        <mxCell id="WIyWlLk6GJQsqaUBKTNV-1" parent="WIyWlLk6GJQsqaUBKTNV-0" />
        <mxCell id="-P5M0mGEpSY80CVXMUva-0" value="Start" style="ellipse;whiteSpace=wrap;html=1;" vertex="1" parent="WIyWlLk6GJQsqaUBKTNV-1">
          <mxGeometry x="354" y="560" width="120" height="80" as="geometry" />
        </mxCell>
        <mxCell id="-P5M0mGEpSY80CVXMUva-1" value="" style="rounded=0;html=1;jettySize=auto;orthogonalLoop=1;fontSize=11;endArrow=block;endFill=0;endSize=8;strokeWidth=1;shadow=0;labelBackgroundColor=none;edgeStyle=orthogonalEdgeStyle;" edge="1" parent="WIyWlLk6GJQsqaUBKTNV-1">
          <mxGeometry y="20" relative="1" as="geometry">
            <mxPoint as="offset" />
            <mxPoint x="413" y="641" as="sourcePoint" />
            <mxPoint x="413" y="711" as="targetPoint" />
          </mxGeometry>
        </mxCell>
        <mxCell id="-P5M0mGEpSY80CVXMUva-2" value="DASHBOARD" style="rounded=0;whiteSpace=wrap;html=1;" vertex="1" parent="WIyWlLk6GJQsqaUBKTNV-1">
          <mxGeometry x="331" y="712" width="170" height="80" as="geometry" />
        </mxCell>
        <mxCell id="-P5M0mGEpSY80CVXMUva-4" value="" style="rounded=0;html=1;jettySize=auto;orthogonalLoop=1;fontSize=11;endArrow=block;endFill=0;endSize=8;strokeWidth=1;shadow=0;labelBackgroundColor=none;edgeStyle=orthogonalEdgeStyle;" edge="1" parent="WIyWlLk6GJQsqaUBKTNV-1">
          <mxGeometry y="20" relative="1" as="geometry">
            <mxPoint as="offset" />
            <mxPoint x="415" y="792" as="sourcePoint" />
            <mxPoint x="415" y="862" as="targetPoint" />
          </mxGeometry>
        </mxCell>
        <mxCell id="-P5M0mGEpSY80CVXMUva-6" value="SELECT" style="shape=parallelogram;perimeter=parallelogramPerimeter;whiteSpace=wrap;html=1;fixedSize=1;" vertex="1" parent="WIyWlLk6GJQsqaUBKTNV-1">
          <mxGeometry x="338" y="864" width="150" height="80" as="geometry" />
        </mxCell>
        <mxCell id="-P5M0mGEpSY80CVXMUva-8" value="" style="rounded=0;html=1;jettySize=auto;orthogonalLoop=1;fontSize=11;endArrow=block;endFill=0;endSize=8;strokeWidth=1;shadow=0;labelBackgroundColor=none;edgeStyle=orthogonalEdgeStyle;" edge="1" parent="WIyWlLk6GJQsqaUBKTNV-1">
          <mxGeometry y="20" relative="1" as="geometry">
            <mxPoint as="offset" />
            <mxPoint x="411" y="947" as="sourcePoint" />
            <mxPoint x="411" y="1017" as="targetPoint" />
            <Array as="points">
              <mxPoint x="411" y="982" />
              <mxPoint x="411" y="982" />
            </Array>
          </mxGeometry>
        </mxCell>
        <mxCell id="-P5M0mGEpSY80CVXMUva-10" value="" style="rounded=0;html=1;jettySize=auto;orthogonalLoop=1;fontSize=11;endArrow=block;endFill=0;endSize=8;strokeWidth=1;shadow=0;labelBackgroundColor=none;edgeStyle=orthogonalEdgeStyle;" edge="1" parent="WIyWlLk6GJQsqaUBKTNV-1">
          <mxGeometry y="20" relative="1" as="geometry">
            <mxPoint as="offset" />
            <mxPoint x="482" y="900" as="sourcePoint" />
            <mxPoint x="608" y="1020" as="targetPoint" />
            <Array as="points">
              <mxPoint x="608" y="900" />
              <mxPoint x="608" y="980" />
            </Array>
          </mxGeometry>
        </mxCell>
        <mxCell id="-P5M0mGEpSY80CVXMUva-11" value="EXIT&lt;span style=&quot;color: rgba(0, 0, 0, 0); font-family: monospace; font-size: 0px; text-align: start; text-wrap: nowrap;&quot;&gt;%3CmxGraphModel%3E%3Croot%3E%3CmxCell%20id%3D%220%22%2F%3E%3CmxCell%20id%3D%221%22%20parent%3D%220%22%2F%3E%3CmxCell%20id%3D%222%22%20value%3D%22%22%20style%3D%22rounded%3D0%3Bhtml%3D1%3BjettySize%3Dauto%3BorthogonalLoop%3D1%3BfontSize%3D11%3BendArrow%3Dblock%3BendFill%3D0%3BendSize%3D8%3BstrokeWidth%3D1%3Bshadow%3D0%3BlabelBackgroundColor%3Dnone%3BedgeStyle%3DorthogonalEdgeStyle%3B%22%20edge%3D%221%22%20parent%3D%221%22%3E%3CmxGeometry%20y%3D%2220%22%20relative%3D%221%22%20as%3D%22geometry%22%3E%3CmxPoint%20as%3D%22offset%22%2F%3E%3CmxPoint%20x%3D%22222%22%20y%3D%22945%22%20as%3D%22sourcePoint%22%2F%3E%3CmxPoint%20x%3D%22222%22%20y%3D%221015%22%20as%3D%22targetPoint%22%2F%3E%3C%2FmxGeometry%3E%3C%2FmxCell%3E%3C%2Froot%3E%3C%2FmxGraphModel%3E&lt;/span&gt;" style="rounded=0;whiteSpace=wrap;html=1;" vertex="1" parent="WIyWlLk6GJQsqaUBKTNV-1">
          <mxGeometry x="554" y="1020" width="120" height="60" as="geometry" />
        </mxCell>
        <mxCell id="-P5M0mGEpSY80CVXMUva-13" value="USER" style="rounded=0;whiteSpace=wrap;html=1;" vertex="1" parent="WIyWlLk6GJQsqaUBKTNV-1">
          <mxGeometry x="353" y="1020" width="120" height="60" as="geometry" />
        </mxCell>
        <mxCell id="-P5M0mGEpSY80CVXMUva-16" value="" style="rounded=0;html=1;jettySize=auto;orthogonalLoop=1;fontSize=11;endArrow=block;endFill=0;endSize=8;strokeWidth=1;shadow=0;labelBackgroundColor=none;edgeStyle=orthogonalEdgeStyle;exitX=0;exitY=0.5;exitDx=0;exitDy=0;" edge="1" parent="WIyWlLk6GJQsqaUBKTNV-1" source="-P5M0mGEpSY80CVXMUva-6">
          <mxGeometry y="20" relative="1" as="geometry">
            <mxPoint as="offset" />
            <mxPoint x="338" y="900" as="sourcePoint" />
            <mxPoint x="212" y="1020" as="targetPoint" />
            <Array as="points">
              <mxPoint x="348" y="900" />
              <mxPoint x="212" y="900" />
            </Array>
          </mxGeometry>
        </mxCell>
        <mxCell id="-P5M0mGEpSY80CVXMUva-20" value="ADMIN" style="rounded=0;whiteSpace=wrap;html=1;" vertex="1" parent="WIyWlLk6GJQsqaUBKTNV-1">
          <mxGeometry x="154" y="1020" width="120" height="60" as="geometry" />
        </mxCell>
      </root>
    </mxGraphModel>
  </diagram>
</mxfile>
